# xmcd
#
# Track frame offsets:
#	150
#	9167
#	26503
#	42159
#	55109
#	67341
#	78566
#	87293
#	106066
#	117857
#
# Disc length: 1729 seconds
#
# Revision: 0
# Processed by: cddbd v1.5.2PL0 Copyright (c) Steve Scherf et al.
# Submitted via: dBpowerAMP V4.0
#
DISCID=7406bf0a
DTITLE=Various Artist - Country Gospel
DYEAR=1900
DGENRE=
TTITLE0=Jack Greene - A Wonderful Time Up There
TTITLE1=Jack Greene - Oh, Happy Day
TTITLE2=Holly Dunn - What A Friend We Have in Jesus
TTITLE3=Oak Ridge Boys - The Angles Must Have Cried
TTITLE4=Mickey Gilley - Peace in the Valley
TTITLE5=Jeanne Pruett - Old Time Religion
TTITLE6=Oak Ridge boys - I'll Love In Glory
TTITLE7=Holly Dunn - Sweet Hour of Prayer
TTITLE8=Jeanne Pruett - Standing on the Promises
TTITLE9=Oak Ridge Boys - Time Has Made A Change In Me
EXTD=
EXTT0=
EXTT1=
EXTT2=
EXTT3=
EXTT4=
EXTT5=
EXTT6=
EXTT7=
EXTT8=
EXTT9=
PLAYORDER=
